<svg xmlns="http://www.w3.org/2000/svg" width="24.942" height="21.922" viewBox="26 436 24.942 21.922"><g data-name="shopping-cart (4)"><path d="M34.087 450.614h13.201a.728.728 0 0 0 .702-.53l2.924-10.23a.73.73 0 0 0-.703-.931H32.4l-.523-2.35a.73.73 0 0 0-.713-.573H26.73a.73.73 0 1 0 0 1.461h3.846l2.639 11.875a2.194 2.194 0 0 0-1.322 2.01c0 1.208.984 2.191 2.193 2.191h13.201a.73.73 0 1 0 0-1.461H34.087a.732.732 0 0 1 0-1.462Zm0 0" fill="#69a03a" fill-rule="evenodd" data-name="Path 714"/><path d="M33.356 455.73c0 1.208.983 2.192 2.192 2.192a2.195 2.195 0 0 0 2.192-2.193 2.195 2.195 0 0 0-2.192-2.192 2.195 2.195 0 0 0-2.192 2.192Zm0 0" fill="#69a03a" fill-rule="evenodd" data-name="Path 715"/><path d="M43.635 455.73c0 1.208.983 2.192 2.192 2.192a2.194 2.194 0 0 0 2.192-2.193 2.195 2.195 0 0 0-2.192-2.192 2.195 2.195 0 0 0-2.192 2.192Zm0 0" fill="#69a03a" fill-rule="evenodd" data-name="Path 716"/></g></svg>