<svg xmlns="http://www.w3.org/2000/svg" width="24.301" height="24.301" viewBox="20.699 166 24.301 24.301"><path d="M41.441 169.559A12.071 12.071 0 0 0 32.85 166a12.071 12.071 0 0 0-8.592 3.559 12.071 12.071 0 0 0-3.558 8.592c0 3.245 1.263 6.297 3.558 8.592a12.071 12.071 0 0 0 8.592 3.558c3.246 0 6.297-1.263 8.592-3.558A12.071 12.071 0 0 0 45 178.15c0-3.246-1.264-6.297-3.559-8.592Zm-3.336 12.169a1.187 1.187 0 0 1-1.679 1.678l-3.577-3.577-3.577 3.577a1.184 1.184 0 0 1-1.678 0 1.187 1.187 0 0 1 0-1.678l3.577-3.577-3.577-3.577a1.187 1.187 0 0 1 1.678-1.679l3.577 3.578 3.577-3.578a1.187 1.187 0 1 1 1.679 1.679l-3.578 3.577 3.578 3.577Zm0 0" fill="#69a03a" fill-rule="evenodd" data-name="delete (3)"/></svg>