<svg xmlns="http://www.w3.org/2000/svg" width="20.911" height="18.239" viewBox="26.5 315.5 20.911 18.239"><g data-name="heart (3)"><path d="M46.798 318.112a5.502 5.502 0 0 0-7.782 0l-1.06 1.06-1.061-1.06a5.503 5.503 0 0 0-7.783 7.783l1.06 1.06 7.783 7.783 7.783-7.783 1.06-1.06a5.502 5.502 0 0 0 0-7.783Z" fill="#69a03a" fill-rule="evenodd"/><path d="M46.798 318.112a5.502 5.502 0 0 0-7.782 0l-1.06 1.06-1.061-1.06a5.503 5.503 0 0 0-7.783 7.783l1.06 1.06 7.783 7.783 7.783-7.783 1.06-1.06a5.502 5.502 0 0 0 0-7.783Z" stroke-linejoin="round" stroke-linecap="round" stroke-width="2" stroke="#69a03a" fill="transparent"/></g></svg>