<svg xmlns="http://www.w3.org/2000/svg" width="26" height="26" viewBox="36.641 495 26 26"><g data-name="search (7)"><path d="m42.404 510.712-.905 3.379-3.308.07A12.942 12.942 0 0 1 36.64 508c0-2.156.525-4.189 1.454-5.979l2.946.54 1.29 2.928a7.728 7.728 0 0 0-.417 2.511c0 .954.172 1.869.49 2.712Z" fill="#fbbb00" fill-rule="evenodd" data-name="Path 719"/><path d="M62.414 505.571c.15.787.227 1.599.227 2.429 0 .93-.097 1.839-.284 2.714a12.997 12.997 0 0 1-4.577 7.424l-3.71-.19-.525-3.277a7.748 7.748 0 0 0 3.334-3.957h-6.952v-5.143h12.487Z" fill="#518ef8" fill-rule="evenodd" data-name="Path 720"/><path d="M57.78 518.137A12.945 12.945 0 0 1 49.641 521c-4.95 0-9.255-2.767-11.45-6.84l4.213-3.448a7.73 7.73 0 0 0 11.141 3.959l4.234 3.466Z" fill="#28b446" fill-rule="evenodd" data-name="Path 721"/><path d="m57.94 497.993-4.212 3.448a7.732 7.732 0 0 0-11.397 4.048l-4.235-3.468h-.001A12.997 12.997 0 0 1 49.641 495c3.155 0 6.047 1.124 8.298 2.993Z" fill="#f14336" fill-rule="evenodd" data-name="Path 722"/></g></svg>