<svg xmlns="http://www.w3.org/2000/svg" width="25.002" height="25.002" viewBox="26 614 25.002 25.002"><path d="M38.501 614C31.608 614 26 619.608 26 626.501c0 6.894 5.608 12.501 12.501 12.501 6.894 0 12.501-5.607 12.501-12.5 0-6.894-5.607-12.502-12.5-12.502Zm0 19.793a1.042 1.042 0 1 1 0-2.083 1.042 1.042 0 0 1 0 2.083Zm1.65-6.623c-.37.17-.608.542-.608.947v.468a1.041 1.041 0 1 1-2.084 0v-.468c0-1.216.715-2.33 1.818-2.84 1.062-.488 1.829-1.786 1.829-2.422a2.607 2.607 0 0 0-2.605-2.604 2.607 2.607 0 0 0-2.604 2.604 1.042 1.042 0 1 1-2.084 0 4.694 4.694 0 0 1 4.688-4.688 4.694 4.694 0 0 1 4.688 4.688c0 1.408-1.22 3.476-3.039 4.315Zm0 0" fill="#69a03a" fill-rule="evenodd" data-name="question"/></svg>