<svg xmlns="http://www.w3.org/2000/svg" width="21.999" height="23.418" viewBox="28 675 21.999 23.418"><g data-name="logout (1)"><path d="M44.72 680.989a1.065 1.065 0 0 0-1.506 1.505l3.15 3.15H33.323a1.064 1.064 0 0 0 0 2.13h13.043l-3.15 3.15a1.064 1.064 0 1 0 1.505 1.505l4.967-4.967a1.064 1.064 0 0 0 0-1.505l-4.967-4.968Z" fill="#69a03a" fill-rule="evenodd" data-name="Path 9"/><path d="M38.29 698.418a1.064 1.064 0 0 0 0-2.129h-8.161v-19.16h8.16a1.064 1.064 0 0 0 0-2.129h-9.225c-.587 0-1.064.477-1.064 1.064v21.29c0 .588.477 1.064 1.064 1.064h9.226Z" fill="#69a03a" fill-rule="evenodd" data-name="Path 10"/></g></svg>