<svg xmlns="http://www.w3.org/2000/svg" width="13.75" height="16.5" viewBox="341 51 13.75 16.5"><g data-name="notification (1)"><g data-name="Group 2613"><g data-name="Group 2612"><path d="m354.7 64.917-1.18-1.968a5.845 5.845 0 0 1-.833-3.007V58.22a4.819 4.819 0 0 0-3.437-4.61v-1.234c0-.758-.617-1.375-1.375-1.375-.759 0-1.376.617-1.376 1.375v1.234a4.819 4.819 0 0 0-3.437 4.61v1.723a5.848 5.848 0 0 1-.833 3.007l-1.18 1.967a.343.343 0 0 0 .294.522h13.063a.345.345 0 0 0 .295-.52Z" fill="#fff" fill-rule="evenodd" data-name="Path 739"/></g></g><g data-name="Group 2615"><g data-name="Group 2614"><path d="M345.71 66.125a2.403 2.403 0 0 0 2.165 1.375c.956 0 1.777-.565 2.164-1.375h-4.33Z" fill="#fff" fill-rule="evenodd" data-name="Path 740"/></g></g></g></svg>