<svg xmlns="http://www.w3.org/2000/svg" width="20.411" height="25.743" viewBox="28 253 20.411 25.743"><g data-name="shopping-bag (2)"><g data-name="Group 464"><g data-name="Group 463"><path d="m48.398 274.228-1.149-14.485a1.81 1.81 0 0 0-1.797-1.665h-2.27v3.365a.754.754 0 1 1-1.508 0v-3.365h-6.936v3.365a.754.754 0 1 1-1.508 0v-3.365h-2.271a1.81 1.81 0 0 0-1.797 1.663l-1.15 14.49a4.204 4.204 0 0 0 1.104 3.168 4.205 4.205 0 0 0 3.075 1.344H44.22c1.163 0 2.284-.49 3.075-1.344a4.203 4.203 0 0 0 1.103-3.17Zm-6.796-7.377-3.899 3.9a.752.752 0 0 1-1.067 0l-1.827-1.828a.754.754 0 1 1 1.066-1.066l1.295 1.294 3.366-3.366a.754.754 0 0 1 1.066 1.066Z" fill="#69a03a" fill-rule="evenodd" data-name="Path 712"/></g></g><g data-name="Group 466"><g data-name="Group 465"><path d="M38.206 253a4.982 4.982 0 0 0-4.976 4.976v.102h1.508v-.102a3.472 3.472 0 0 1 3.468-3.468 3.472 3.472 0 0 1 3.468 3.468v.102h1.507v-.102A4.982 4.982 0 0 0 38.206 253Z" fill="#69a03a" fill-rule="evenodd" data-name="Path 713"/></g></g></g></svg>