<svg xmlns="http://www.w3.org/2000/svg" width="23.997" height="23.042" viewBox="26 494 23.997 23.042"><g data-name="XMLID_2534_"><path d="M49.997 512.22c-.343-.05-2.49-.36-2.834-.411l-1.268-2.568-1.267 2.568-2.678.39.988-.964-3.414-.496-1.526-3.092-1.526 3.092-3.413.496.987.963-2.677-.389-1.268-2.568v.001l-1.267 2.567-2.834.412 2.05 1.999-.483 2.822 2.534-1.332c.307.16 2.226 1.17 2.535 1.332l-.484-2.822 1.984-1.934 1.392 1.357-.583 3.399 3.053-1.605 3.053 1.605-.583-3.4 1.392-1.357 1.985 1.935-.484 2.822 2.534-1.333 2.535 1.333-.484-2.822 2.05-2Z" fill="#69a03a" fill-rule="evenodd" data-name="XMLID_2538_"/><path d="M31.776 506.205v-.718c0-1.19.336-2.305.92-3.251a3.977 3.977 0 0 0-.778-.416c.427-.394.695-.958.695-1.583a2.156 2.156 0 0 0-2.153-2.154 2.156 2.156 0 0 0-2.154 2.154c0 .625.268 1.188.694 1.582a3.954 3.954 0 0 0-2.489 3.668v.718h5.265Z" fill="#69a03a" fill-rule="evenodd" data-name="XMLID_2638_"/><path d="M44.22 505.487v.718h5.265v-.718a3.954 3.954 0 0 0-2.49-3.668c.427-.394.695-.957.695-1.582a2.156 2.156 0 0 0-2.154-2.154 2.156 2.156 0 0 0-2.154 2.154c0 .625.269 1.19.695 1.583-.274.11-.534.25-.776.416.583.946.92 2.06.92 3.251Z" fill="#69a03a" fill-rule="evenodd" data-name="XMLID_2639_"/><path d="M42.784 505.487a4.788 4.788 0 0 0-3.094-4.478 3.712 3.712 0 0 0 2.017-3.3A3.714 3.714 0 0 0 37.998 494a3.714 3.714 0 0 0-3.71 3.71c0 1.436.822 2.683 2.018 3.299a4.788 4.788 0 0 0-3.094 4.478v.718h9.572v-.718Z" fill="#69a03a" fill-rule="evenodd" data-name="XMLID_2731_"/></g></svg>