<svg xmlns="http://www.w3.org/2000/svg" width="23.623" height="26.458" viewBox="20.284 106 23.623 26.458"><path d="M43.586 109.703a.865.865 0 0 0-.625-.714l-10.634-2.957a.864.864 0 0 0-.463 0l-10.634 2.957a.865.865 0 0 0-.625.714c-.061.443-1.468 10.922 2.14 16.135 3.605 5.207 8.923 6.541 9.148 6.596a.863.863 0 0 0 .406 0c.224-.055 5.542-1.389 9.147-6.596 3.609-5.212 2.202-15.691 2.14-16.135Zm-4.633 6.118-7.253 7.253a.862.862 0 0 1-1.223 0l-4.485-4.485a.864.864 0 0 1 0-1.222l.89-.89a.865.865 0 0 1 1.224 0l2.983 2.982 5.751-5.752a.864.864 0 0 1 1.223 0l.89.89a.865.865 0 0 1 0 1.224Z" fill="#69a03a" fill-rule="evenodd" data-name="secure"/></svg>