<svg xmlns="http://www.w3.org/2000/svg" width="22.999" height="25.09" viewBox="27 554 22.999 25.09"><g data-name="share (1)"><path d="M49.215 558.182a3.398 3.398 0 1 1-6.795 0 3.398 3.398 0 0 1 6.795 0Zm0 0" fill="#69a03a" fill-rule="evenodd" data-name="Path 731"/><path d="M45.817 562.363a4.186 4.186 0 0 1-4.181-4.181A4.186 4.186 0 0 1 45.817 554 4.186 4.186 0 0 1 50 558.182a4.186 4.186 0 0 1-4.182 4.181Zm0-6.795a2.617 2.617 0 0 0-2.613 2.614 2.617 2.617 0 0 0 2.613 2.613 2.617 2.617 0 0 0 2.614-2.613 2.617 2.617 0 0 0-2.614-2.614Zm0 0" fill="#69a03a" fill-rule="evenodd" data-name="Path 732"/><path d="M49.215 574.908a3.398 3.398 0 1 1-6.795 0 3.398 3.398 0 0 1 6.795 0Zm0 0" fill="#69a03a" fill-rule="evenodd" data-name="Path 733"/><path d="M45.817 579.09a4.186 4.186 0 0 1-4.181-4.182 4.186 4.186 0 0 1 4.181-4.181A4.186 4.186 0 0 1 50 574.908a4.186 4.186 0 0 1-4.182 4.182Zm0-6.795a2.617 2.617 0 0 0-2.613 2.613 2.617 2.617 0 0 0 2.613 2.614 2.617 2.617 0 0 0 2.614-2.614 2.617 2.617 0 0 0-2.614-2.613Zm0 0" fill="#69a03a" fill-rule="evenodd" data-name="Path 734"/><path d="M34.58 566.545a3.398 3.398 0 1 1-6.796 0 3.398 3.398 0 0 1 6.795 0Zm0 0" fill="#69a03a" fill-rule="evenodd" data-name="Path 735"/><path d="M31.182 570.727A4.186 4.186 0 0 1 27 566.545a4.186 4.186 0 0 1 4.182-4.182 4.186 4.186 0 0 1 4.181 4.182 4.186 4.186 0 0 1-4.181 4.182Zm0-6.795a2.616 2.616 0 0 0-2.614 2.613 2.616 2.616 0 0 0 2.614 2.613 2.616 2.616 0 0 0 2.613-2.613 2.616 2.616 0 0 0-2.613-2.613Zm0 0" fill="#69a03a" fill-rule="evenodd" data-name="Path 736"/><path d="M33.65 566.043a1.047 1.047 0 0 1-.519-1.954l9.7-5.53c.501-.287 1.14-.112 1.427.391.285.5.11 1.14-.391 1.426l-9.7 5.53c-.164.093-.341.137-.517.137Zm0 0" fill="#69a03a" fill-rule="evenodd" data-name="Path 737"/><path d="M43.35 574.668c-.176 0-.354-.044-.517-.137l-9.7-5.53a1.047 1.047 0 0 1 1.034-1.817l9.7 5.53a1.047 1.047 0 0 1-.518 1.954Zm0 0" fill="#69a03a" fill-rule="evenodd" data-name="Path 738"/></g></svg>